<svg xmlns="http://www.w3.org/2000/svg" xmlns:xlink="http://www.w3.org/1999/xlink" version="1.1" x="0px" y="0px" viewBox="0 0 100 100" style="enable-background:new 0 0 100 100;" xml:space="preserve"><style type="text/css">
	.st0{display:none;}
	.st1{display:inline;}
	.st2{fill:none;}
	.st3{fill:#010101;}
	.st4{fill:none;stroke:#000000;stroke-miterlimit:10;}
	.st5{fill:#FFFFFF;}
	.st6{fill:none;stroke:#010101;stroke-miterlimit:10;}
	.st7{fill:none;stroke:#000000;stroke-width:1.5;stroke-linecap:square;stroke-miterlimit:10;stroke-dasharray:0,3;}
	.st8{fill:none;stroke:#FFFFFF;stroke-width:0.25;stroke-miterlimit:10;}
	.st9{fill:none;stroke:#000000;stroke-width:1.2;stroke-miterlimit:10;}
	.st10{fill:none;stroke:#000000;stroke-width:2;stroke-miterlimit:10;}
	.st11{fill:#FFFFFF;stroke:#000000;stroke-width:2;stroke-miterlimit:10;}
	.st12{stroke:#000000;stroke-width:0.75;stroke-miterlimit:10;}
	.st13{fill:none;stroke:#000000;stroke-width:3;stroke-miterlimit:10;}
	.st14{stroke:#000000;stroke-miterlimit:10;}
	.st15{fill:none;stroke:#000000;stroke-width:2.5;stroke-miterlimit:10;}
	.st16{fill:none;stroke:#000000;stroke-width:4;stroke-miterlimit:10;}
	.st17{fill:#020202;}
</style><g><g><g><path d="M65.9,34.5l-2.3,1.6c0,0.6-0.1,1.1-0.2,1.7l1.8,2.1c-0.3,0.8-0.8,1.6-1.3,2.3l-2.8-0.5c-0.4,0.4-0.9,0.7-1.3,1l-0.2,2.8     c-0.4,0.2-0.8,0.3-1.3,0.4c-0.4,0.1-0.9,0.2-1.3,0.3L55.4,44c-0.6,0-1.1-0.1-1.7-0.2l-2.1,1.8c-0.8-0.3-1.6-0.8-2.3-1.3l0.5-2.8     c-0.4-0.4-0.7-0.9-1-1.3l-2.8-0.2c-0.2-0.4-0.3-0.8-0.4-1.3s-0.2-0.9-0.3-1.3l2.3-1.6c0-0.6,0.1-1.1,0.2-1.7l-1.8-2.1     c0.3-0.8,0.8-1.6,1.3-2.3l2.8,0.5c0.4-0.4,0.9-0.7,1.3-1l0.2-2.8c0.4-0.2,0.8-0.3,1.3-0.4c0.4-0.1,0.9-0.2,1.3-0.3l1.6,2.3     c0.6,0,1.1,0.1,1.7,0.2l2.1-1.8c0.8,0.3,1.6,0.8,2.3,1.3l-0.5,2.8c0.4,0.4,0.7,0.9,1,1.3l2.8,0.2c0.2,0.4,0.3,0.8,0.4,1.3     C65.8,33.6,65.8,34.1,65.9,34.5z M60.3,36.9c0.5-2.6-1.2-5.1-3.8-5.7c-2.6-0.5-5.1,1.2-5.7,3.8c-0.5,2.6,1.2,5.1,3.8,5.7     C57.2,41.2,59.7,39.5,60.3,36.9z"></path><path d="M51.4,50.7l-2.3,1.6c0,0.6-0.1,1.1-0.2,1.7l1.8,2.1c-0.3,0.8-0.8,1.6-1.3,2.3L46.6,58c-0.4,0.4-0.9,0.7-1.3,1l-0.2,2.8     c-0.4,0.2-0.8,0.3-1.3,0.4s-0.9,0.2-1.3,0.3l-1.6-2.3c-0.6,0-1.1-0.1-1.7-0.2l-2.1,1.8c-0.8-0.3-1.6-0.8-2.3-1.3l0.5-2.8     c-0.4-0.4-0.7-0.9-1-1.3l-2.8-0.2c-0.2-0.4-0.3-0.8-0.4-1.3c-0.1-0.4-0.2-0.9-0.3-1.3l2.3-1.6c0-0.6,0.1-1.1,0.2-1.7l-1.8-2.1     c0.3-0.8,0.8-1.6,1.3-2.3l2.8,0.5c0.4-0.4,0.9-0.7,1.3-1l0.2-2.8c0.4-0.2,0.8-0.3,1.3-0.4c0.4-0.1,0.9-0.2,1.3-0.3l1.6,2.3     c0.6,0,1.1,0.1,1.7,0.2l2.1-1.8c0.8,0.3,1.6,0.8,2.3,1.3l-0.5,2.8c0.4,0.4,0.7,0.9,1,1.3l2.8,0.2c0.2,0.4,0.3,0.8,0.4,1.3     C51.3,49.9,51.4,50.3,51.4,50.7z M45.8,53.1c0.5-2.6-1.2-5.1-3.8-5.7c-2.6-0.5-5.1,1.2-5.7,3.8c-0.5,2.6,1.2,5.1,3.8,5.7     C42.7,57.4,45.3,55.7,45.8,53.1z"></path></g></g><g><g><g><path d="M91.8,67.3v8.3c0,1.2-1,2.1-2.1,2.1H56c-0.8,0-1.3,0.7-1.1,1.4c0,0,0.6,1.9,0.7,2.1l5.7,6.9v0.2c0,0.5-0.4,1-0.9,1      l-24,0.1c-0.5,0-1-0.4-1-1v-0.2l5.4-7c0.1-0.1,0.7-2.1,0.7-2.1c0.2-0.7-0.3-1.5-1.1-1.5H6.9c-1.2,0-2.1-1-2.1-2.1v-7.2V19.3      c0-0.6,0.2-1.1,0.6-1.5c0.4-0.4,0.9-0.6,1.5-0.6h82.8c1.2,0,2.1,1,2.1,2.1V67.3z M89.4,67.3V19.5H7v47.8H89.4z"></path></g></g></g></g></svg>