<svg height='100px' width='100px'  fill="#000000" xmlns="http://www.w3.org/2000/svg" xmlns:xlink="http://www.w3.org/1999/xlink" version="1.1" x="0px" y="0px" viewBox="0 0 100 100" style="enable-background:new 0 0 100 100;" xml:space="preserve"><g><path d="M97,80.1L91.5,70c-0.8-1.5-2.8-2.5-4.9-2.5H13.4c-2.1,0-4.1,1-4.9,2.5L3,80.1c-1.8,3.5,1.6,7.3,6.7,7.3h80.6   C95.4,87.5,98.8,83.6,97,80.1z M56.3,82.5H43.7c-0.8,0-1.3-1.9-1-3.7l0.8-5c0.1-0.8,0.5-1.2,0.8-1.2h11.6c0.3,0,0.6,0.5,0.8,1.2   l0.8,5C57.7,80.6,57.1,82.5,56.3,82.5z"></path><path d="M21.6,62.5h56.8c5,0,9.1-4,9.1-9.1V21.6c0-5-4-9.1-9.1-9.1H21.6c-5,0-9.1,4-9.1,9.1v31.8C12.5,58.4,16.6,62.5,21.6,62.5z    M50,16.3c0.7,0,1.2,0.5,1.2,1.2s-0.5,1.2-1.2,1.2s-1.2-0.5-1.2-1.2S49.3,16.3,50,16.3z"></path></g></svg>