<svg height='100px' width='100px'  fill="#000000" xmlns="http://www.w3.org/2000/svg" xmlns:xlink="http://www.w3.org/1999/xlink" version="1.1" x="0px" y="0px" viewBox="0 0 64 64" style="enable-background:new 0 0 64 64;" xml:space="preserve"><g><path d="M56,6H8c-2.2061,0-4,1.7944-4,4v32c0,2.2056,1.7939,4,4,4h17.0917c0.0814,1.5195-0.0566,4.6902-2.3665,6H19   c-1.6543,0-3,1.3457-3,3c0,0.811,0.3164,1.5664,0.874,2.1084C17.4346,57.6831,18.1895,58,19,58h26c1.6543,0,3-1.3457,3-3   c0-0.811-0.3164-1.5664-0.873-2.1079C46.5664,52.3169,45.8115,52,45,52h-3.7252c-2.3099-1.3098-2.4479-4.4805-2.3665-6H56   c2.2061,0,4-1.7944,4-4V10C60,7.7944,58.2061,6,56,6z M8,8h48c1.1025,0,2,0.897,2,2v22H6V10C6,8.897,6.8975,8,8,8z    M45.7129,54.3062C45.8975,54.4868,46,54.7329,46,55c0,0.5513-0.4482,1-1,1H19c-0.2666,0-0.5127-0.1021-0.7129-0.3062   C18.1025,55.5132,18,55.2671,18,55c0-0.5513,0.4482-1,1-1h4h18h4C45.2666,54,45.5137,54.1021,45.7129,54.3062z M38.3428,52H25.6572   c1.3906-1.9648,1.5117-4.5298,1.4414-6h9.8027C36.8311,47.4702,36.9521,50.0352,38.3428,52z M56,44H38H26H8c-1.1025,0-2-0.897-2-2   v-8h52v8C58,43.103,57.1025,44,56,44z"></path><path d="M32,36c-1.6543,0-3,1.3457-3,3s1.3457,3,3,3s3-1.3457,3-3S33.6543,36,32,36z M32,40c-0.5518,0-1-0.4487-1-1s0.4482-1,1-1   s1,0.4487,1,1S32.5518,40,32,40z"></path></g></svg>